<?xml version="1.0" standalone="no"?>
<!DOCTYPE svg PUBLIC "-//W3C//DTD SVG 20010904//EN"
 "http://www.w3.org/TR/2001/REC-SVG-20010904/DTD/svg10.dtd">
<svg version="1.0" xmlns="http://www.w3.org/2000/svg"
 width="1080.000000pt" height="291.000000pt" viewBox="0 0 1080.000000 291.000000"
 preserveAspectRatio="xMidYMid meet">

<g transform="translate(0.000000,291.000000) scale(0.100000,-0.100000)"
fill="#000000" stroke="none">
<path d="M637 2646 c-77 -28 -147 -80 -183 -137 -13 -21 -24 -42 -24 -46 0 -5
-7 -21 -15 -37 -25 -47 -20 -82 24 -176 24 -52 99 -123 163 -154 76 -37 191
-46 281 -22 122 33 209 127 222 239 l6 57 -145 0 -146 0 0 -37 0 -38 80 0 c43
0 84 -5 90 -11 7 -7 1 -24 -24 -56 -49 -64 -118 -92 -207 -85 -128 11 -219 82
-241 191 -11 50 -10 59 12 105 27 59 58 90 120 123 37 19 60 23 130 23 89 0
145 -19 197 -67 l22 -20 35 22 c20 12 36 25 36 30 0 15 -65 63 -120 88 -83 38
-220 42 -313 8z"/>
<path d="M3255 2657 c-124 -42 -213 -119 -240 -210 -42 -143 20 -269 168 -342
131 -65 282 -59 409 16 220 129 204 393 -31 506 -69 34 -85 37 -171 40 -59 2
-110 -2 -135 -10z m233 -87 c64 -29 111 -69 134 -114 17 -32 19 -53 16 -107
-5 -59 -9 -72 -43 -112 -70 -84 -189 -115 -313 -82 -54 15 -75 27 -114 66 -52
52 -63 86 -56 174 7 82 64 145 167 181 55 20 158 17 209 -6z"/>
<path d="M1250 2365 l0 -295 50 0 50 0 0 119 c0 66 4 122 9 125 9 6 58 -45
160 -167 l64 -77 59 0 c32 0 58 2 58 4 0 5 -31 42 -127 152 -40 45 -73 87 -73
92 0 6 14 13 31 17 17 4 48 24 69 45 95 95 48 228 -95 265 -34 8 -101 15 -157
15 l-98 0 0 -295z m240 200 c107 -55 61 -169 -71 -176 -25 -1 -51 1 -57 5 -13
8 -17 167 -5 179 12 13 104 7 133 -8z"/>
<path d="M1820 2653 c-1 -5 0 -104 0 -222 1 -200 2 -217 22 -253 73 -129 296
-157 422 -54 68 55 76 91 76 333 l0 203 -49 0 -50 0 -3 -207 c-3 -225 -8 -248
-60 -286 -41 -30 -124 -34 -182 -9 -71 32 -76 51 -76 297 l0 205 -50 0 c-27 0
-50 -3 -50 -7z"/>
<path d="M2518 2654 c-5 -4 -8 -137 -8 -296 l0 -288 55 0 55 0 0 118 0 118 83
10 c98 13 143 33 180 81 21 29 27 47 27 88 0 65 -28 110 -90 145 -40 22 -59
25 -170 28 -69 2 -128 0 -132 -4z m260 -103 c26 -18 32 -29 32 -57 0 -20 -4
-44 -10 -54 -14 -25 -89 -52 -136 -48 l-39 3 -3 94 -3 93 64 -4 c45 -3 72 -10
95 -27z"/>
<path d="M7028 2640 c-117 -35 -174 -140 -128 -235 18 -38 29 -47 77 -65 31
-11 78 -26 104 -31 60 -13 99 -43 99 -74 0 -65 -115 -73 -198 -15 l-46 32 -42
-48 c-24 -27 -43 -52 -44 -57 0 -15 94 -66 144 -78 131 -29 268 6 330 84 27
34 31 47 31 102 0 57 -3 67 -30 95 -39 41 -64 54 -150 75 -82 20 -115 38 -115
65 0 43 93 54 168 20 l42 -19 25 49 c14 27 25 54 25 59 0 6 -30 19 -66 31 -68
21 -175 26 -226 10z"/>
<path d="M8600 2640 c-70 -17 -126 -48 -180 -101 -63 -61 -80 -103 -80 -193 0
-104 66 -193 187 -252 75 -37 211 -44 298 -17 220 70 310 271 192 430 -80 109
-267 168 -417 133z m179 -136 c28 -11 50 -31 72 -62 27 -41 30 -54 27 -99 -8
-94 -77 -153 -179 -153 -102 0 -169 65 -169 165 0 127 122 200 249 149z"/>
<path d="M4221 2588 c-9 -51 -76 -417 -88 -485 l-6 -33 86 0 86 0 6 33 c3 17
14 88 25 156 19 120 24 140 35 129 3 -3 29 -74 58 -159 l54 -154 61 -3 c73 -3
63 -17 127 176 26 78 51 145 55 147 5 3 11 -12 14 -32 16 -110 37 -251 42
-270 4 -22 9 -23 95 -23 81 0 90 2 85 18 -3 9 -17 85 -31 167 -14 83 -35 202
-48 265 l-23 115 -95 3 -95 3 -18 -58 c-10 -32 -34 -98 -52 -148 -55 -144 -49
-135 -67 -95 -9 19 -34 87 -56 150 -22 63 -43 123 -46 133 -6 14 -21 17 -100
17 l-94 0 -10 -52z"/>
<path d="M5060 2355 l0 -285 95 0 95 0 0 275 c0 151 0 278 0 283 0 4 -43 8
-95 10 l-95 3 0 -286z"/>
<path d="M5400 2365 c0 -151 -1 -278 -2 -282 -2 -5 39 -9 90 -11 l93 -3 -3
176 c-2 96 0 175 4 175 4 0 19 -17 35 -37 15 -21 83 -100 152 -175 l123 -138
89 0 89 0 0 285 0 285 -91 0 -90 0 3 -180 c2 -99 0 -180 -3 -180 -4 0 -18 17
-32 39 -14 21 -82 102 -152 180 l-126 141 -90 0 -89 0 0 -275z"/>
<path d="M6344 2583 c-14 -32 -38 -92 -54 -133 -16 -41 -51 -129 -79 -195 -44
-103 -60 -138 -79 -177 -2 -5 40 -8 92 -8 83 0 97 2 102 18 3 9 12 32 20 50
l14 32 129 0 129 0 10 -27 c6 -16 12 -37 14 -48 3 -18 12 -20 101 -23 53 -1
97 -1 97 2 0 2 -22 55 -48 118 -78 180 -139 328 -162 391 l-21 57 -120 0 -119
0 -26 -57z m190 -178 c21 -57 34 -109 31 -115 -8 -12 -135 -13 -154 -1 -12 8
-9 23 18 88 17 43 31 81 31 85 0 18 21 59 29 54 4 -3 25 -53 45 -111z"/>
<path d="M7757 2633 c-4 -3 -7 -132 -7 -285 l0 -278 95 0 95 0 0 94 0 94 104
4 c92 3 107 6 145 31 60 40 81 79 81 153 0 52 -4 67 -30 102 -39 54 -63 68
-134 81 -65 12 -339 15 -349 4z m316 -145 c45 -53 -8 -108 -105 -108 -25 0
-26 3 -30 58 -6 83 -5 85 61 77 38 -4 62 -13 74 -27z"/>
<path d="M9180 2356 l0 -286 90 0 90 0 0 100 c0 55 4 100 9 100 5 0 37 -42 72
-92 34 -51 68 -96 73 -100 12 -8 206 -11 206 -3 0 3 -39 52 -86 111 -47 58
-83 109 -79 112 4 4 25 16 48 27 54 26 79 63 85 124 6 67 -30 131 -91 162 -37
20 -63 23 -229 27 l-188 5 0 -287z m289 149 c51 -26 55 -72 10 -110 -25 -21
-40 -25 -73 -23 l-41 3 -3 59 c-2 32 -1 65 2 72 7 19 69 18 105 -1z"/>
<path d="M9738 2575 c-4 -75 1 -80 75 -70 27 4 54 2 67 -5 20 -11 21 -17 20
-218 l-2 -207 91 -3 91 -3 0 209 c0 140 4 212 11 219 6 6 26 9 45 6 18 -3 48
-3 66 1 l33 6 -1 62 0 63 -246 3 -246 2 -4 -65z"/>
<path d="M417 1823 c-4 -3 -7 -60 -7 -125 l0 -118 4373 -2 c2583 -2 4371 -7
4370 -12 -1 -9 -34 -28 -328 -186 -99 -53 -189 -101 -200 -108 -48 -27 -297
-163 -375 -204 -47 -25 -157 -85 -245 -133 -88 -48 -205 -112 -259 -141 l-99
-54 -316 -2 -316 -3 -3 -113 -4 -113 429 3 428 3 85 51 c47 28 97 58 112 65
14 8 68 37 120 65 51 28 125 68 163 89 39 20 90 50 115 65 25 15 108 61 185
102 77 42 176 96 220 120 44 25 114 63 155 85 41 22 118 64 170 93 52 29 122
68 155 85 33 18 107 58 165 90 194 108 444 244 582 317 76 40 138 76 138 81 0
9 -9804 10 -9813 0z"/>
<path d="M2179 951 c-28 -23 -18 -41 12 -23 16 10 28 10 54 2 28 -9 38 -8 59
6 15 9 26 20 26 25 0 12 -24 11 -36 -1 -8 -8 -19 -8 -38 0 -38 14 -50 13 -77
-9z"/>
<path d="M473 854 c-48 -24 -67 -58 -54 -96 12 -35 29 -50 86 -79 49 -24 79
-62 70 -89 -10 -30 -35 -39 -90 -30 -55 9 -65 6 -65 -16 0 -31 89 -44 163 -23
68 18 92 96 45 146 -13 13 -49 40 -80 60 -60 36 -72 59 -43 83 18 15 58 17 96
6 33 -10 50 21 23 41 -24 18 -112 16 -151 -3z"/>
<path d="M797 849 c-49 -26 -76 -83 -77 -158 0 -120 72 -190 184 -178 73 7
103 24 126 72 29 61 28 170 -3 216 -45 68 -151 90 -230 48z m132 -35 c87 -62
54 -264 -44 -264 -37 0 -77 53 -83 109 -12 129 52 207 127 155z"/>
<path d="M1125 848 c-3 -13 -4 -93 -3 -178 l3 -155 45 1 c25 1 73 2 108 3 54
1 62 3 62 21 0 17 -8 19 -67 22 l-68 3 -3 153 -3 152 -34 0 c-28 0 -36 -5 -40
-22z"/>
<path d="M1387 864 c-15 -15 -8 -242 9 -283 26 -64 113 -89 204 -58 59 20 71
58 68 212 l-3 130 -30 0 -30 0 -5 -138 c-5 -131 -6 -140 -29 -158 -30 -24 -52
-24 -84 2 -26 20 -26 23 -29 157 l-3 137 -30 3 c-17 2 -34 0 -38 -4z"/>
<path d="M1844 854 c-73 -36 -112 -113 -98 -192 14 -77 54 -124 121 -141 33
-9 40 -15 36 -30 -3 -14 3 -21 27 -30 48 -16 32 -36 -30 -37 -66 -1 -76 -19
-20 -34 44 -12 75 -7 103 18 29 25 21 50 -25 74 l-43 22 50 9 c56 9 68 17 60
39 -5 11 -17 14 -55 10 -96 -9 -143 33 -144 128 -1 97 43 136 142 127 49 -5
52 -4 52 18 0 12 -7 26 -16 29 -30 12 -129 5 -160 -10z"/>
<path d="M2157 849 c-74 -39 -101 -167 -54 -259 28 -56 64 -75 142 -75 78 0
114 19 143 75 31 59 27 170 -6 218 -44 61 -150 81 -225 41z m146 -48 c40 -40
43 -159 5 -213 -76 -108 -197 45 -139 176 29 66 88 83 134 37z"/>
<path d="M2487 863 c-4 -3 -7 -82 -7 -174 0 -151 2 -167 18 -171 9 -2 61 -2
115 0 85 3 98 6 95 20 -3 14 -18 18 -76 20 l-73 3 3 57 3 57 60 0 c53 0 60 2
60 20 0 18 -8 20 -62 23 l-63 3 0 49 0 50 70 0 c62 0 70 2 70 19 0 10 -7 22
-16 25 -21 8 -189 8 -197 -1z"/>
<path d="M2830 854 c-37 -25 -50 -45 -50 -75 0 -45 9 -57 69 -91 61 -35 90
-64 91 -89 0 -30 -27 -41 -92 -37 -53 2 -63 0 -66 -14 -11 -59 199 -42 222 17
24 63 -6 113 -95 162 -51 27 -68 55 -50 77 15 18 70 26 100 14 32 -12 47 3 32
31 -10 18 -21 21 -74 21 -41 0 -71 -6 -87 -16z"/>
<path d="M3250 697 c0 -169 1 -175 21 -180 48 -13 50 -6 47 177 l-3 171 -32 3
-33 3 0 -174z"/>
<path d="M3417 863 c-12 -11 -8 -341 4 -348 5 -4 22 -4 36 0 l26 6 -7 126 c-6
100 -4 124 6 121 7 -3 40 -57 74 -122 33 -64 66 -122 72 -128 6 -6 26 -7 51
-3 l41 7 -2 171 -3 172 -30 0 -30 0 -5 -130 -5 -130 -22 34 c-12 18 -45 78
-74 132 -52 97 -54 99 -89 99 -20 0 -40 -3 -43 -7z"/>
<path d="M3787 863 c-4 -3 -7 -15 -7 -25 0 -15 8 -18 45 -18 l45 0 0 -149 c0
-95 4 -152 11 -156 5 -4 21 -4 34 -1 24 6 24 7 27 154 l3 147 48 3 c38 3 47 7
47 21 0 11 -7 22 -16 25 -21 8 -229 8 -237 -1z"/>
<path d="M4107 864 c-7 -8 -10 -338 -3 -345 2 -2 54 -3 116 -1 98 3 111 5 108
20 -3 14 -17 18 -76 20 l-73 3 3 57 3 57 63 3 c53 3 63 6 60 20 -3 13 -16 18
-66 20 l-62 3 0 49 0 50 71 0 c67 0 70 1 67 23 -3 21 -8 22 -104 25 -55 1
-103 0 -107 -4z"/>
<path d="M4515 859 c-54 -15 -101 -68 -113 -126 -7 -29 -10 -58 -8 -65 3 -7 7
-25 10 -40 11 -49 61 -95 118 -108 48 -12 173 -8 187 5 3 4 6 46 6 96 l0 89
-66 0 c-48 0 -68 -4 -72 -14 -8 -19 1 -26 35 -26 29 0 29 0 26 -57 l-3 -58
-43 2 c-48 2 -97 32 -108 65 -10 34 -7 124 6 148 6 12 32 31 57 42 44 19 70
20 131 2 17 -5 22 -2 22 13 0 10 -5 24 -12 31 -14 14 -127 15 -173 1z"/>
<path d="M4797 863 c-10 -10 -8 -341 2 -347 5 -3 22 -3 37 0 29 5 29 6 29 77
l0 72 30 0 c26 0 33 -7 55 -51 14 -27 30 -61 35 -75 7 -17 19 -25 44 -27 32
-3 33 -2 27 25 -4 15 -22 58 -41 96 -18 37 -29 67 -24 67 21 0 49 42 49 74 0
49 -27 77 -86 87 -61 10 -148 11 -157 2z m155 -55 c44 -37 17 -90 -48 -92 -38
-1 -39 0 -42 38 -2 21 -1 44 2 52 7 18 67 19 88 2z"/>
<path d="M5230 848 c-5 -13 -27 -70 -50 -128 -23 -58 -51 -127 -61 -153 -17
-41 -17 -48 -4 -53 33 -13 61 5 74 46 l12 40 78 0 79 0 9 -37 c9 -40 44 -62
77 -50 15 6 15 9 0 44 -9 21 -37 94 -61 163 -25 69 -50 131 -55 138 -6 6 -28
12 -49 12 -32 0 -41 -5 -49 -22z m80 -118 c13 -39 20 -73 17 -76 -7 -8 -95 -9
-102 -2 -6 6 47 148 56 148 4 0 17 -32 29 -70z"/>
<path d="M5508 864 c-12 -11 -10 -342 2 -349 5 -3 53 -1 107 4 106 11 131 23
171 82 20 29 23 44 20 101 -3 58 -8 72 -33 99 -17 17 -45 38 -64 46 -37 16
-192 29 -203 17z m162 -59 c16 -8 36 -25 44 -37 19 -26 21 -106 5 -141 -14
-32 -82 -69 -117 -65 l-27 3 -3 114 c-1 63 0 121 2 128 7 18 60 17 96 -2z"/>
<path d="M5945 773 c-21 -54 -53 -133 -71 -176 -35 -84 -32 -96 20 -83 18 4
26 16 33 43 l9 38 81 3 81 3 9 -38 c9 -40 44 -62 77 -50 15 6 14 12 -5 59 -12
29 -39 105 -62 168 -22 63 -46 118 -51 122 -6 4 -27 8 -47 8 l-36 0 -38 -97z
m109 -49 c15 -37 24 -69 21 -72 -7 -7 -102 -9 -109 -1 -3 3 3 28 14 55 10 27
21 57 24 67 10 31 24 18 50 -49z"/>
<path d="M6288 854 c-34 -18 -48 -43 -48 -83 0 -35 23 -62 72 -87 40 -20 88
-63 88 -79 0 -7 -9 -20 -20 -30 -16 -15 -30 -17 -80 -12 -48 5 -60 4 -60 -7 0
-28 31 -46 79 -46 96 0 151 35 151 95 0 43 -29 78 -98 118 -60 35 -75 63 -47
87 18 15 55 17 98 6 24 -6 27 -4 27 18 0 13 -7 27 -16 30 -29 11 -119 5 -146
-10z"/>
</g>
</svg>
